<?xml version="1.0" encoding="utf-8"?>
<!-- Generator: Adobe Illustrator 19.0.0, SVG Export Plug-In . SVG Version: 6.00 Build 0)  -->
<svg version="1.1" id="Layer_1" xmlns="http://www.w3.org/2000/svg" xmlns:xlink="http://www.w3.org/1999/xlink" x="0px" y="0px"
	 viewBox="0 0 500 500" style="enable-background:new 0 0 500 500;" xml:space="preserve">
<style type="text/css">
	.st0{fill:#D9A741;}
	.st1{fill:#876929;}
	.st2{fill:#624A1E;}
	.st3{fill:#FAD791;}
</style>
<g id="XMLID_1_">
	<polyline id="XMLID_2_" class="st0" points="401.2,185.9 396.3,185.8 250.1,142.5 250,140.5 250,67.5 401.2,143.1 401.2,185.9 	"/>
	<polyline id="XMLID_3_" class="st1" points="250,144.9 250,67.5 98.8,143.1 98.8,356.9 98.9,356.9 98.9,356.9 250,432.5 
		250.5,431.8 250.3,359.9 250,359.5 240.6,352.8 123.6,317.9 124.2,182.7 250,144.9 	"/>
	<polyline id="XMLID_4_" class="st0" points="272.6,298.2 118.1,319.9 118.1,180 272.6,201.8 272.6,298.2 	"/>
	<polyline id="XMLID_5_" class="st1" points="194.3,289.3 250,296.4 250,203.5 194.3,210.6 194.3,289.3 	"/>
	<polyline id="XMLID_6_" class="st1" points="138.2,282.2 174.4,286.8 174.4,213.1 138.2,217.7 138.2,282.2 	"/>
	<polyline id="XMLID_7_" class="st2" points="118.1,180 250,140.5 401.2,185.9 272.7,201.8 118.1,180 	"/>
	<polyline id="XMLID_8_" class="st0" points="401.1,277 250,296.1 250,203.5 401.1,222.8 401.1,277 	"/>
	<polyline id="XMLID_9_" class="st0" points="401.1,314.2 397.8,314.3 250.5,358.9 250,359.5 250,432.5 401.1,357 401.1,314.2 	"/>
	<polyline id="XMLID_10_" class="st3" points="118.1,319.9 250,359.5 401.1,314.2 272.6,298.2 118.1,319.9 	"/>
</g>
</svg>
