<?xml version="1.0" encoding="utf-8"?>
<!-- Generator: Adobe Illustrator 19.0.0, SVG Export Plug-In . SVG Version: 6.00 Build 0)  -->
<svg version="1.1" id="Layer_1" xmlns="http://www.w3.org/2000/svg" xmlns:xlink="http://www.w3.org/1999/xlink" x="0px" y="0px"
	 viewBox="0 0 96 96" style="enable-background:new 0 0 96 96;" xml:space="preserve">
<style type="text/css">
	.st0{fill:#77B3D4;}
	.st1{fill:#6695B0;}
	.st2{fill:#FFFFFF;}
</style>
<g id="XMLID_1_">
	<path id="XMLID_3_" class="st0" d="M48,15.5c17.9,0,32.5,14.6,32.5,32.5S65.9,80.5,48,80.5c-17.9,0-32.5-14.6-32.5-32.5
		S30.1,15.5,48,15.5"/>
	<path id="XMLID_4_" class="st1" d="M48,31.7c-7.6,0-14,5.3-15.7,12.3c-4.9,0.8-8.6,5-8.6,10.1c0,5.6,4.6,10.2,10.2,10.2h30.5
		c4.5,0,8.1-3.7,8.1-8.1c0-4.5-3.7-8.1-8.1-8.1C64.3,39.1,56.9,31.7,48,31.7"/>
	<path id="XMLID_5_" class="st2" d="M64.3,46c0-8.9-7.3-16.3-16.3-16.3c-7.6,0-14,5.3-15.7,12.3c-4.9,0.8-8.6,5-8.6,10.1
		c0,5.6,4.6,10.2,10.2,10.2h30.5c4.5,0,8.1-3.7,8.1-8.1C72.4,49.6,68.7,46,64.3,46z"/>
</g>
</svg>
