<svg id="Layer_1" enable-background="new 0 0 124 124" height="512" viewBox="0 0 124 124" width="512" xmlns="http://www.w3.org/2000/svg"><g><g><g><path d="m101.056 124h-78.112c-3.278 0-5.944-2.691-5.944-6v-112c0-3.309 2.666-6 5.944-6h78.111c3.279 0 5.945 2.691 5.945 6v112c0 3.309-2.666 6-5.944 6zm-78.112-120c-1.092 0-1.981.897-1.981 2v112c0 1.103.889 2 1.981 2h78.111c1.092 0 1.981-.897 1.981-2v-112c0-1.103-.889-2-1.981-2z"/></g><g><path d="m96.415 60.88c-1.094 0-1.981-.896-1.981-2v-1.91c0-1.104.887-2 1.981-2s1.981.896 1.981 2v1.91c0 1.104-.887 2-1.981 2z"/></g><g><path d="m96.415 102.524h-68.83c-1.094 0-1.981-.896-1.981-2v-83.287c0-1.104.887-2 1.981-2h68.829c1.094 0 1.981.896 1.981 2v33.069c0 1.104-.887 2-1.981 2s-1.981-.896-1.981-2v-31.069h-64.866v79.287h64.866v-33.117c0-1.104.887-2 1.981-2s1.981.896 1.981 2v35.117c.001 1.104-.886 2-1.98 2z"/></g><g><path d="m65.886 11.559h-7.773c-1.094 0-1.981-.896-1.981-2s.887-2 1.981-2h7.773c1.094 0 1.981.896 1.981 2s-.886 2-1.981 2z"/></g><g><path d="m62 117.202c-3.2 0-5.805-2.691-5.805-6s2.604-6 5.805-6c3.2 0 5.805 2.691 5.805 6s-2.605 6-5.805 6zm0-8c-1.016 0-1.842.897-1.842 2s.826 2 1.842 2 1.842-.897 1.842-2-.826-2-1.842-2z"/></g><g><path d="m85.353 112.202h-6.556c-1.094 0-1.981-.896-1.981-2s.887-2 1.981-2h6.556c1.094 0 1.981.896 1.981 2s-.886 2-1.981 2z"/></g><g><path d="m45.202 112.202h-6.556c-1.094 0-1.981-.896-1.981-2s.887-2 1.981-2h6.556c1.094 0 1.981.896 1.981 2s-.886 2-1.981 2z"/></g></g><g><path d="m82.035 53.816c.195-1.226-1.344-5.525-1.105-8.273.169-1.954-.206-3.708-.629-5.338-1.177-4.529-5.499-16.372-18.575-16.071-1.394.032-16.887.504-18.609 19.336-.152 2.506-.454 5.612-.659 6.237-1.563 4.409 1.241 9.684 5.614 10.937.419.14 3.038.989 6.023 1.45-2.23 3.013-5.784 4.724-9.261 5.688-5.762 1.614-9.786 6.964-9.786 13.011v10.134c0 1.104.879 2 1.963 2h49.979c1.084 0 1.963-.896 1.963-2v-10.135c0-5.698-3.516-10.952-8.809-12.692-8.106-2.663-9.577-5.019-10.337-6.414 4.791-.889 11.428-2.757 12.228-7.87zm-5.598 26.874c.775 0 1.406.647 1.406 1.443s-.631 1.443-1.406 1.443-1.406-.647-1.406-1.443.63-1.443 1.406-1.443zm-23.475-22.866c-2.065-.442-3.67-.981-3.698-.991-2.222-.744-3.976-3.333-3.114-5.767.478-1.348.778-5.588.881-7.287 1.395-15.233 13.306-15.638 14.584-15.648 11.274-.09 14.038 9.81 14.891 13.097.335 1.292.498 2.704.498 4.315 0 2.274.802 6.512 1.085 7.939-.538 1.719-3.3 2.862-6.073 3.605 2.163-3.306 1.948-9.567 1.796-11.738-.068-.972-.814-1.752-1.765-1.848-10.49-1.057-12.436-5.669-12.438-5.669-.551-1.632-2.83-1.798-3.603-.263-1.163 2.307-4.263 5.033-5.36 5.889-.52.406-.808 1.052-.766 1.719.19 2.956.382 6.268.386 6.826-.119 1.67 1.136 3.826 2.696 5.821zm17.002-10.549c.056 3.823-.589 7.491-1.478 7.9-.176.082-.34.189-.486.319-1.693 1.514-3.3 3.145-5.25 4.316-.728.438-1.62.425-2.322-.033-1.631-1.062-2.95-2.692-4.172-4.2-.671-.828-1.953-2.105-2.077-3.243.02-.186.056-.524-.314-6.385.955-.816 2.556-2.278 3.916-3.965 1.865 1.947 5.45 4.321 12.183 5.291zm-11.881 15.709c2.619 1.792 5.329 1.196 7.82-.468.988 3.104 4.263 5.507 6.949 7l-10.852 9.536-10.791-9.485c2.978-1.567 6.209-4.919 6.874-6.583zm26.944 25.943h-46.054v-8.134c0-4.168 2.73-7.86 6.665-9.077.003.826.018 5.628.024 6.775-1.991 1.167-3.545 2.738-3.545 5.253v.875c0 1.104.879 2 1.963 2s1.963-.896 1.963-2c0-.799-.083-1.688.713-2.155.72-.422.722-.541 1.431-.077.767.503.654 1.43.654 2.231 0 1.104.879 2 1.963 2s1.963-.896 1.963-2v-.987c0-2.337-1.361-3.891-3.179-5.083-.005-1.154-.017-4.831-.018-5.138l11.147 9.796c.738.648 1.827.648 2.565 0l11.192-9.834v3.703c-1.97.8-3.369 2.763-3.369 5.056 0 3.001 2.392 5.443 5.332 5.443s5.332-2.442 5.332-5.443c0-2.293-1.399-4.255-3.369-5.056v-5.349c3.914 1.228 6.627 4.91 6.627 9.064z"/></g></g></svg>