<svg xmlns="http://www.w3.org/2000/svg" viewBox="0 0 500 500"><g id="freepik--background-simple--inject-1488"><path d="M174.4,323.18c-24.86-3.91-48.44-17.09-62.25-38-17.59-26.61-17.6-68,10-87.71,12.09-8.64,26.61-13.06,40.71-17.74,21.29-7.07,42.4-15.1,61.62-26.67,18.27-11,31.35-28.69,46-43.87,12.48-12.94,26.35-25.09,43-31.88,39.18-16,92.18,7.15,115.81,39.8,26.15,36.13,25.13,85.48-4.68,119.07a96.25,96.25,0,0,1-54.35,30.57c-26.63,4.83-60.63-4.53-83.94,13-14.9,11.2-24.46,23.6-41.79,31.78-18,8.48-37.79,13.45-57.74,12.82A99.26,99.26,0,0,1,174.4,323.18Z" style="fill:#407BFF"></path><path d="M174.4,323.18c-24.86-3.91-48.44-17.09-62.25-38-17.59-26.61-17.6-68,10-87.71,12.09-8.64,26.61-13.06,40.71-17.74,21.29-7.07,42.4-15.1,61.62-26.67,18.27-11,31.35-28.69,46-43.87,12.48-12.94,26.35-25.09,43-31.88,39.18-16,92.18,7.15,115.81,39.8,26.15,36.13,25.13,85.48-4.68,119.07a96.25,96.25,0,0,1-54.35,30.57c-26.63,4.83-60.63-4.53-83.94,13-14.9,11.2-24.46,23.6-41.79,31.78-18,8.48-37.79,13.45-57.74,12.82A99.26,99.26,0,0,1,174.4,323.18Z" style="fill:#fff;opacity:0.9"></path></g><g id="freepik--Shadow--inject-1488"><ellipse id="freepik--path--inject-1488" cx="250" cy="416.24" rx="193.89" ry="11.32" style="fill:#f5f5f5"></ellipse></g><g id="freepik--version-control--inject-1488"><rect x="80.63" y="128.32" width="0.89" height="31.03" transform="translate(-7.89 4.74) rotate(-3.19)" style="fill:#407BFF"></rect><rect x="82.72" y="174.99" width="0.89" height="12.66" transform="translate(-9.97 4.91) rotate(-3.19)" style="fill:#407BFF"></rect><path d="M362.31,247.55H92.73a3,3,0,0,1-3-2.86L81.41,96.07a3,3,0,0,1,3-3.2H354a3,3,0,0,1,3,2.86l8.29,148.62A3,3,0,0,1,362.31,247.55Z" style="fill:#fff"></path><path d="M362.31,248H92.73a3.48,3.48,0,0,1-3.47-3.28L81,96.09a3.46,3.46,0,0,1,3.47-3.66H354a3.48,3.48,0,0,1,3.47,3.28l8.29,148.62a3.47,3.47,0,0,1-3.47,3.67ZM84.44,93.32A2.57,2.57,0,0,0,81.86,96l8.29,148.63a2.59,2.59,0,0,0,2.58,2.44H362.31a2.58,2.58,0,0,0,2.58-2.73L356.6,95.75A2.59,2.59,0,0,0,354,93.32Z" style="fill:#407BFF"></path><path d="M93,104.54a3.37,3.37,0,0,1-3.32-3.15,3,3,0,0,1,3-3.2A3.38,3.38,0,0,1,96,101.34h0a3,3,0,0,1-3,3.2Zm-.3-5.46a2.13,2.13,0,0,0-1.56.66,2.09,2.09,0,0,0-.57,1.6A2.46,2.46,0,0,0,93,103.65a2.09,2.09,0,0,0,1.56-.66,2.06,2.06,0,0,0,.57-1.6h0A2.47,2.47,0,0,0,92.67,99.08Z" style="fill:#407BFF"></path><path d="M106,104.54a3.38,3.38,0,0,1-3.32-3.15,3,3,0,0,1,3-3.2,3.39,3.39,0,0,1,3.33,3.15h0a3,3,0,0,1-.82,2.26A3,3,0,0,1,106,104.54Zm-.3-5.46a2.11,2.11,0,0,0-2.13,2.26,2.46,2.46,0,0,0,2.43,2.31,2.12,2.12,0,0,0,2.14-2.26h0A2.48,2.48,0,0,0,105.74,99.08Z" style="fill:#407BFF"></path><path d="M119.12,104.54a3.38,3.38,0,0,1-3.33-3.15,3,3,0,0,1,.81-2.26,3,3,0,0,1,2.21-.94,3.39,3.39,0,0,1,3.33,3.15h0a3,3,0,0,1-3,3.2Zm-.31-5.46a2.14,2.14,0,0,0-1.56.66,2.17,2.17,0,0,0-.57,1.6,2.47,2.47,0,0,0,2.44,2.31,2.11,2.11,0,0,0,1.56-.66,2.14,2.14,0,0,0,.57-1.6A2.48,2.48,0,0,0,118.81,99.08Z" style="fill:#407BFF"></path><rect x="85.55" y="169.77" width="275.65" height="0.89" style="fill:#407BFF"></rect><polygon points="260.03 170.53 237.18 148.89 136.91 148.89 116.49 170.52 115.85 169.91 136.53 148 237.54 148 237.67 148.13 260.64 169.89 260.03 170.53" style="fill:#407BFF"></polygon><polygon points="287.42 192.42 179.32 192.42 179.19 192.3 156.22 170.53 156.83 169.89 179.68 191.53 287.04 191.53 307.46 169.91 308.1 170.52 287.42 192.42" style="fill:#407BFF"></polygon><polygon points="363.63 214.18 260.44 214.18 260.31 214.06 237.33 192.3 237.94 191.65 260.79 213.29 363.63 213.29 363.63 214.18" style="fill:#407BFF"></polygon><path d="M104.78,170.21a4.54,4.54,0,0,1-4.58,4.85,5.2,5.2,0,0,1-5.13-4.85,4.54,4.54,0,0,1,4.59-4.85A5.19,5.19,0,0,1,104.78,170.21Z" style="fill:#fff"></path><path d="M100.2,175.51a5.65,5.65,0,0,1-5.57-5.27,5,5,0,0,1,5-5.33,5.65,5.65,0,0,1,5.56,5.28h0a5,5,0,0,1-5,5.32Zm-.54-9.71a4.1,4.1,0,0,0-4.14,4.39,4.74,4.74,0,0,0,4.68,4.43,4.09,4.09,0,0,0,3-1.28,4.13,4.13,0,0,0,1.12-3.1h0A4.76,4.76,0,0,0,99.66,165.8Z" style="fill:#407BFF"></path><path d="M121,170.21a4.54,4.54,0,0,1-4.58,4.85,5.19,5.19,0,0,1-5.12-4.85,4.54,4.54,0,0,1,4.58-4.85A5.19,5.19,0,0,1,121,170.21Z" style="fill:#fff"></path><path d="M116.44,175.51a5.65,5.65,0,0,1-5.57-5.27,5,5,0,0,1,5-5.33,5.65,5.65,0,0,1,5.57,5.28h0a5,5,0,0,1-5,5.32Zm-.54-9.71a4.1,4.1,0,0,0-4.14,4.39,4.76,4.76,0,0,0,4.68,4.43,4.09,4.09,0,0,0,4.14-4.38h0A4.76,4.76,0,0,0,115.9,165.8Z" style="fill:#407BFF"></path><path d="M226.24,192a4.54,4.54,0,0,1-4.58,4.86,5.2,5.2,0,0,1-5.12-4.86,4.54,4.54,0,0,1,4.58-4.85A5.18,5.18,0,0,1,226.24,192Z" style="fill:#fff"></path><path d="M221.66,197.27a5.65,5.65,0,0,1-5.57-5.27,5,5,0,0,1,5-5.33,5.65,5.65,0,0,1,5.57,5.28h0a5,5,0,0,1-5,5.32Zm-.54-9.7A4.08,4.08,0,0,0,217,192a4.76,4.76,0,0,0,4.68,4.43A4.09,4.09,0,0,0,225.8,192h0A4.75,4.75,0,0,0,221.12,187.57Z" style="fill:#407BFF"></path><path d="M242.49,192a4.54,4.54,0,0,1-4.58,4.86,5.2,5.2,0,0,1-5.13-4.86,4.54,4.54,0,0,1,4.58-4.85A5.2,5.2,0,0,1,242.49,192Z" style="fill:#fff"></path><path d="M237.91,197.27a5.65,5.65,0,0,1-5.57-5.27,5,5,0,0,1,5-5.33,5.65,5.65,0,0,1,5.57,5.28,5,5,0,0,1-5,5.32Zm-.55-9.7a4.08,4.08,0,0,0-4.13,4.38,4.74,4.74,0,0,0,4.68,4.43A4.09,4.09,0,0,0,242,192,4.74,4.74,0,0,0,237.36,187.57Z" style="fill:#407BFF"></path><polygon points="339.96 170.53 294.13 127.13 186.78 127.13 166.36 148.75 165.71 148.14 186.39 126.24 294.49 126.24 294.62 126.36 340.57 169.89 339.96 170.53" style="fill:#407BFF"></polygon><ellipse cx="149.79" cy="148.45" rx="4.72" ry="4.99" transform="translate(-61.06 152.32) rotate(-45.79)" style="fill:#407BFF"></ellipse><path d="M150.06,153.75a5.65,5.65,0,0,1-5.57-5.28,5,5,0,0,1,5-5.32,5.65,5.65,0,0,1,5.57,5.27,5,5,0,0,1-5,5.33Zm-.54-9.71a4.11,4.11,0,0,0-3,1.28,4.16,4.16,0,0,0-1.11,3.1,4.76,4.76,0,0,0,4.68,4.44,4.1,4.1,0,0,0,4.14-4.39A4.76,4.76,0,0,0,149.52,144Z" style="fill:#407BFF"></path><ellipse cx="166.03" cy="148.45" rx="4.72" ry="4.99" transform="translate(-56.14 163.98) rotate(-45.8)" style="fill:#407BFF"></ellipse><path d="M166.31,153.75a5.65,5.65,0,0,1-5.57-5.28,5,5,0,0,1,5-5.32,5.65,5.65,0,0,1,5.57,5.27h0a5,5,0,0,1-5,5.33Zm-.55-9.71a4.09,4.09,0,0,0-4.13,4.38,4.74,4.74,0,0,0,4.68,4.44,4.09,4.09,0,0,0,4.13-4.39h0A4.74,4.74,0,0,0,165.76,144Z" style="fill:#407BFF"></path><ellipse cx="182.28" cy="148.45" rx="4.72" ry="4.99" transform="translate(-51.23 175.61) rotate(-45.79)" style="fill:#407BFF"></ellipse><path d="M182.55,153.75a5.65,5.65,0,0,1-5.57-5.28,5,5,0,0,1,5-5.32,5.66,5.66,0,0,1,5.57,5.27h0a5.08,5.08,0,0,1-1.36,3.77A5,5,0,0,1,182.55,153.75ZM182,144a4.09,4.09,0,0,0-4.14,4.38,4.74,4.74,0,0,0,4.68,4.44,4.1,4.1,0,0,0,4.14-4.39h0A4.76,4.76,0,0,0,182,144Z" style="fill:#407BFF"></path><path d="M203.38,148.45a4.55,4.55,0,0,1-4.59,4.85,5.19,5.19,0,0,1-5.12-4.85,4.54,4.54,0,0,1,4.58-4.86A5.21,5.21,0,0,1,203.38,148.45Z" style="fill:#407BFF"></path><path d="M198.79,153.75a5.66,5.66,0,0,1-5.57-5.28,5,5,0,0,1,5-5.32,5.65,5.65,0,0,1,5.57,5.27,5,5,0,0,1-5,5.33Zm-.54-9.71a4.11,4.11,0,0,0-3,1.28,4.16,4.16,0,0,0-1.11,3.1,4.76,4.76,0,0,0,4.68,4.44,4.1,4.1,0,0,0,4.14-4.39A4.76,4.76,0,0,0,198.25,144Z" style="fill:#407BFF"></path><path d="M249,170.21a4.54,4.54,0,0,1-4.58,4.85,5.19,5.19,0,0,1-5.13-4.85,4.54,4.54,0,0,1,4.58-4.85A5.2,5.2,0,0,1,249,170.21Z" style="fill:#407BFF"></path><path d="M244.37,175.51a5.65,5.65,0,0,1-5.57-5.27,5,5,0,0,1,5-5.33,5.65,5.65,0,0,1,5.57,5.28,5,5,0,0,1-5,5.32Zm-.55-9.71a4.09,4.09,0,0,0-4.13,4.39,4.74,4.74,0,0,0,4.68,4.43,4.09,4.09,0,0,0,4.13-4.38A4.74,4.74,0,0,0,243.82,165.8Z" style="fill:#407BFF"></path><path d="M161.38,170.21a4.54,4.54,0,0,1-4.59,4.85,5.19,5.19,0,0,1-5.12-4.85,4.54,4.54,0,0,1,4.58-4.85A5.2,5.2,0,0,1,161.38,170.21Z" style="fill:#407BFF"></path><path d="M156.8,175.51a5.65,5.65,0,0,1-5.57-5.27,5,5,0,0,1,5-5.33,5.65,5.65,0,0,1,5.57,5.28,5,5,0,0,1-5,5.32Zm-.55-9.71a4.11,4.11,0,0,0-4.14,4.39,4.76,4.76,0,0,0,4.69,4.43,4.09,4.09,0,0,0,4.13-4.38A4.74,4.74,0,0,0,156.25,165.8Z" style="fill:#407BFF"></path><path d="M265.19,170.21a4.54,4.54,0,0,1-4.58,4.85,5.2,5.2,0,0,1-5.13-4.85,4.54,4.54,0,0,1,4.59-4.85A5.19,5.19,0,0,1,265.19,170.21Z" style="fill:#fff"></path><path d="M260.61,175.51a5.65,5.65,0,0,1-5.57-5.27,5,5,0,0,1,5-5.33,5.66,5.66,0,0,1,5.57,5.28h0a5,5,0,0,1-5,5.32Zm-.54-9.71a4.1,4.1,0,0,0-4.14,4.39,4.74,4.74,0,0,0,4.68,4.43,4.11,4.11,0,0,0,3-1.28,4.16,4.16,0,0,0,1.11-3.1h0A4.76,4.76,0,0,0,260.07,165.8Z" style="fill:#407BFF"></path><path d="M328.88,170.21a4.54,4.54,0,0,1-4.59,4.85,5.19,5.19,0,0,1-5.12-4.85,4.54,4.54,0,0,1,4.58-4.85A5.2,5.2,0,0,1,328.88,170.21Z" style="fill:#fff"></path><path d="M324.29,175.51a5.67,5.67,0,0,1-5.57-5.27,5.06,5.06,0,0,1,1.36-3.77,5,5,0,0,1,3.67-1.56,5.65,5.65,0,0,1,5.57,5.28h0a5,5,0,0,1-5,5.32Zm-.54-9.71a4.11,4.11,0,0,0-4.14,4.39,4.76,4.76,0,0,0,4.68,4.43,4.09,4.09,0,0,0,4.14-4.38h0A4.74,4.74,0,0,0,323.75,165.8Z" style="fill:#407BFF"></path><path d="M312.63,170.21a4.54,4.54,0,0,1-4.58,4.85,5.19,5.19,0,0,1-5.12-4.85,4.54,4.54,0,0,1,4.58-4.85A5.19,5.19,0,0,1,312.63,170.21Z" style="fill:#fff"></path><path d="M308.05,175.51a5.65,5.65,0,0,1-5.57-5.27,5,5,0,0,1,5-5.33,5.65,5.65,0,0,1,5.57,5.28h0a5,5,0,0,1-5,5.32Zm-.54-9.71a4.1,4.1,0,0,0-4.14,4.39,4.76,4.76,0,0,0,4.68,4.43,4.11,4.11,0,0,0,3-1.28,4.16,4.16,0,0,0,1.11-3.1h0A4.76,4.76,0,0,0,307.51,165.8Z" style="fill:#407BFF"></path><path d="M345.12,170.21a4.54,4.54,0,0,1-4.58,4.85,5.2,5.2,0,0,1-5.13-4.85,4.54,4.54,0,0,1,4.59-4.85A5.19,5.19,0,0,1,345.12,170.21Z" style="fill:#407BFF"></path><path d="M340.54,175.51a5.65,5.65,0,0,1-5.57-5.27,5,5,0,0,1,5-5.33,5.65,5.65,0,0,1,5.56,5.28,5,5,0,0,1-5,5.32ZM340,165.8a4.1,4.1,0,0,0-4.14,4.39,4.74,4.74,0,0,0,4.68,4.43,4.09,4.09,0,0,0,3-1.28,4.13,4.13,0,0,0,1.12-3.1A4.76,4.76,0,0,0,340,165.8Z" style="fill:#407BFF"></path></g></svg>