<?xml version='1.0' encoding='utf-8'?>
<!DOCTYPE svg PUBLIC '-//W3C//DTD SVG 1.1//EN' 'http://www.w3.org/Graphics/SVG/1.1/DTD/svg11.dtd'>
<svg version="1.1" xmlns="http://www.w3.org/2000/svg" viewBox="0 0 512 512" xmlns:xlink="http://www.w3.org/1999/xlink" enable-background="new 0 0 512 512">
  <g>
    <g>
      <path d="m296.1,218.5c-7.9,8-7.9,20.9 0.1,28.9 10.4,10.3 16.2,24.1 16.2,38.7 0,30.3-24.8,54.9-55.4,54.9-30.5,0-55.4-24.6-55.4-54.9 0-13.4 4.9-26.2 13.8-36.3 7.5-8.4 6.8-21.3-1.6-28.8-8.4-7.5-21.3-6.8-28.8,1.6-15.6,17.5-24.2,40-24.2,63.4 0,52.8 43.2,95.7 96.2,95.7 53,0 96.2-42.9 96.2-95.7 0-25.6-10-49.6-28.3-67.7-8-7.8-20.9-7.8-28.8,0.2z"/>
      <g>
        <path d="m257,290.9c11.3,0 20.4-9.1 20.4-20.4v-87.2c0-11.3-9.1-20.4-20.4-20.4-11.3,0-20.4,9.1-20.4,20.4v87.2c0,11.2 9.1,20.4 20.4,20.4z"/>
        <path d="m382.3,415.2h-250.6c-43.5,0-78.9-41.4-78.9-92.2 0-42.5 24.7-79.3 60.1-89.5 7.3-2.1 12.9-8.1 14.4-15.6 13.7-69 68.3-119.2 129.6-119.2 61.4,0 115.9,50.1 129.6,119.2 1.5,7.5 7,13.5 14.4,15.6 35.4,10.2 60.1,47 60.1,89.5 0.2,50.9-35.2,92.2-78.7,92.2zm41.8-216.8c-21.3-83.3-88.6-140.5-167.1-140.5-78.5-7.10543e-15-145.8,57.2-167.1,140.5-46.4,19.2-77.9,68.6-77.9,124.6 0,73.4 53.7,133 119.7,133h250.5c66,0 119.7-59.7 119.7-133 0.1-56-31.4-105.4-77.8-124.6z"/>
      </g>
    </g>
  </g>
</svg>
