<svg viewBox="0 0 512 512" xmlns="http://www.w3.org/2000/svg">
	<path d="m256 469.332031c-117.632812 0-213.332031-95.699219-213.332031-213.332031s95.699219-213.332031 213.332031-213.332031 213.332031 95.699219 213.332031 213.332031-95.699219 213.332031-213.332031 213.332031zm0-394.664062c-99.988281 0-181.332031 81.34375-181.332031 181.332031s81.34375 181.332031 181.332031 181.332031 181.332031-81.34375 181.332031-181.332031-81.34375-181.332031-181.332031-181.332031zm0 0"/>
	<path d="m256 106.667969c-8.832031 0-16-7.167969-16-16v-74.667969c0-8.832031 7.167969-16 16-16s16 7.167969 16 16v74.667969c0 8.832031-7.167969 16-16 16zm0 0"/>
	<path d="m256 512c-8.832031 0-16-7.167969-16-16v-74.667969c0-8.832031 7.167969-16 16-16s16 7.167969 16 16v74.667969c0 8.832031-7.167969 16-16 16zm0 0"/>
	<path d="m90.667969 272h-74.667969c-8.832031 0-16-7.167969-16-16s7.167969-16 16-16h74.667969c8.832031 0 16 7.167969 16 16s-7.167969 16-16 16zm0 0"/>
	<path d="m496 272h-74.667969c-8.832031 0-16-7.167969-16-16s7.167969-16 16-16h74.667969c8.832031 0 16 7.167969 16 16s-7.167969 16-16 16zm0 0"/>

	<path d="m205.667969 272h-74.667969c-8.832031 0-16-7.167969-16-16s7.167969-16 16-16h74.667969c8.832031 0 16 7.167969 16 16s-7.167969 16-16 16zm0 0"/>
	<path d="m290.667969 272h-74.667969c-8.832031 0-16-7.167969-16-16s7.167969-16 16-16h74.667969c8.832031 0 16 7.167969 16 16s-7.167969 16-16 16zm0 0"/>
	<path d="m377.667969 272h-74.667969c-8.832031 0-16-7.167969-16-16s7.167969-16 16-16h74.667969c8.832031 0 16 7.167969 16 16s-7.167969 16-16 16zm0 0"/>

	<path d="m256 312c-8.832031 0-16-7.167969-16-16v-74.667969c0-8.832031 7.167969-16 16-16s16 7.167969 16 16v74.667969c0 8.832031-7.167969 16-16 16zm0 0"/>
	<path d="m256 220c-8.832031 0-16-7.167969-16-16v-74.667969c0-8.832031 7.167969-16 16-16s16 7.167969 16 16v74.667969c0 8.832031-7.167969 16-16 16zm0 0"/>
	<path d="m256 400c-8.832031 0-16-7.167969-16-16v-74.667969c0-8.832031 7.167969-16 16-16s16 7.167969 16 16v74.667969c0 8.832031-7.167969 16-16 16zm0 0"/>
</svg>